<?xml version="1.0" encoding="utf-8"?>
<!-- Svg Vector Icons : http://www.onlinewebfonts.com/icon -->
<!DOCTYPE svg PUBLIC "-//W3C//DTD SVG 1.1//EN" "http://www.w3.org/Graphics/SVG/1.1/DTD/svg11.dtd">
<svg version="1.1" xmlns="http://www.w3.org/2000/svg" xmlns:xlink="http://www.w3.org/1999/xlink" x="0px" y="0px" viewBox="0 0 1000 1000" enable-background="new 0 0 1000 1000" xml:space="preserve">
<metadata> Svg Vector Icons : http://www.onlinewebfonts.com/icon </metadata>
<g><g transform="translate(0.000000,511.000000) scale(0.100000,-0.100000)"><path d="M3162.5,416.3v-3470.8h816.7h816.7v-102.1v-102.1H3264.6H1733.3v408.3v408.3h612.5h612.5V416.3v2858.3H1529.2H100V416.3v-2858.3h612.5H1325v-612.5v-612.5h3675h3675v612.5v612.5h612.5H9900V416.3v2858.3H8470.8H7041.7V416.3v-2858.3h612.5h612.5v-408.3v-408.3H6735.4H5204.2v102.1v102.1h816.7h816.7V416.3v3470.8H5000H3162.5V416.3z M6020.8,3070.4v-204.2h-306.3h-306.3v204.2v204.2h306.3h306.3V3070.4z M2141.7,2457.9v-204.2H1912h-229.7v204.2v204.2H1912h229.7V2457.9z M9083.3,2457.9v-204.2h-229.7H8624v204.2v204.2h229.7h229.7V2457.9z M6020.8,1041.5V824.6H5000H3979.2v216.9v216.9H5000h1020.8V1041.5z M2141.7,1028.8V824.6h-612.5H916.7v204.2v204.2h612.5h612.5V1028.8z M9083.3,1028.8V824.6h-612.5h-612.5v204.2v204.2h612.5h612.5V1028.8z M2141.7,416.3V212.1h-612.5H916.7v204.2v204.2h612.5h612.5V416.3z M6020.8,416.3V212.1H5000H3979.2v204.2v204.2H5000h1020.8V416.3z M9083.3,416.3V212.1h-612.5h-612.5v204.2v204.2h612.5h612.5V416.3z M2141.7-196.3v-204.2h-612.5H916.7v204.2V7.9h612.5h612.5V-196.3z M6020.8-196.3v-204.2H5000H3979.2v204.2V7.9H5000h1020.8V-196.3z M9083.3-196.3v-204.2h-612.5h-612.5v204.2V7.9h612.5h612.5V-196.3z M2141.7-808.8v-204.2h-612.5H916.7v204.2v204.2h612.5h612.5V-808.8z M6020.8-808.8v-204.2H5000H3979.2v204.2v204.2H5000h1020.8V-808.8z M9083.3-808.8v-204.2h-612.5h-612.5v204.2v204.2h612.5h612.5V-808.8z M2141.7-1421.2v-204.2h-612.5H916.7v204.2v204.2h612.5h612.5V-1421.2z M6020.8-1421.2v-204.2H5000H3979.2v204.2v204.2H5000h1020.8V-1421.2z M9083.3-1421.2v-204.2h-612.5h-612.5v204.2v204.2h612.5h612.5V-1421.2z M6020.8-2033.7v-204.2H5000H3979.2v204.2v204.2H5000h1020.8V-2033.7z"/></g></g>
</svg>