<?xml version="1.0" encoding="utf-8"?>
<!-- Svg Vector Icons : http://www.onlinewebfonts.com/icon -->
<!DOCTYPE svg PUBLIC "-//W3C//DTD SVG 1.1//EN" "http://www.w3.org/Graphics/SVG/1.1/DTD/svg11.dtd">
<svg version="1.1" xmlns="http://www.w3.org/2000/svg" xmlns:xlink="http://www.w3.org/1999/xlink" x="0px" y="0px" viewBox="0 0 1000 1000" enable-background="new 0 0 1000 1000" xml:space="preserve">
<metadata> Svg Vector Icons : http://www.onlinewebfonts.com/icon </metadata>
<g><g transform="translate(0.000000,511.000000) scale(0.100000,-0.100000)"><path d="M4795.8,4805.8v-201.6l-1510.8-7.7l-1513.4-7.7l-650.8-395.6l-648.2-395.6l2263.7-7.7c1245.4-2.6,3279.4-2.6,4522.3,0l2261.1,7.7l-645.7,375.2c-354.7,206.7-678.8,385.4-717.1,400.7c-48.5,17.9-553.8,28.1-1513.4,28.1H5204.2v204.2V5010H5000h-204.2V4805.8z"/><path d="M100,2457.9V1335h4900h4900v1122.9v1122.9H5000H100V2457.9z M8062.5,2764.2V2560h-306.3H7450v204.2v204.2h306.2h306.3V2764.2z M9287.5,2764.2V2560h-306.3H8675v204.2v204.2h306.3h306.3V2764.2z M1325,2355.8v-204.2h-204.2H916.7v204.2V2560h204.2H1325V2355.8z M2141.7,2355.8v-204.2h-204.2h-204.2v204.2V2560h204.2h204.2V2355.8z M2958.3,2355.8v-204.2h-204.2H2550v204.2V2560h204.2h204.2V2355.8z M3775,2355.8v-204.2h-204.2h-204.2v204.2V2560h204.2H3775V2355.8z M4591.7,2355.8v-204.2h-204.2h-204.2v204.2V2560h204.2h204.2V2355.8z M5408.3,2355.8v-204.2h-204.2H5000v204.2V2560h204.2h204.2V2355.8z M6225,2355.8v-204.2h-204.2h-204.2v204.2V2560h204.2H6225V2355.8z M7041.7,2355.8v-204.2h-204.2h-204.2v204.2V2560h204.2h204.2V2355.8z M8062.5,2151.7v-204.2h-306.3H7450v204.2v204.2h306.2h306.3V2151.7z M9287.5,2151.7v-204.2h-306.3H8675v204.2v204.2h306.3h306.3V2151.7z"/><path d="M623.2,1033.9l-153.1-94.4l2266.2-7.6c1245.4-2.6,3282-2.6,4524.8,0l2258.6,7.6l-163.3,97l-163.3,94.4l-4208.4-2.5l-4208.4-2.6L623.2,1033.9z"/><path d="M100-400.4v-1122.9h4900h4900v1122.9V722.5H5000H100V-400.4z M8062.5-94.2v-204.2h-306.3H7450v204.2V110h306.2h306.3V-94.2z M9287.5-94.2v-204.2h-306.3H8675v204.2V110h306.3h306.3V-94.2z M1325-502.5v-204.2h-204.2H916.7v204.2v204.2h204.2H1325V-502.5z M2141.7-502.5v-204.2h-204.2h-204.2v204.2v204.2h204.2h204.2V-502.5z M2958.3-502.5v-204.2h-204.2H2550v204.2v204.2h204.2h204.2V-502.5z M3775-502.5v-204.2h-204.2h-204.2v204.2v204.2h204.2H3775V-502.5z M4591.7-502.5v-204.2h-204.2h-204.2v204.2v204.2h204.2h204.2V-502.5z M5408.3-502.5v-204.2h-204.2H5000v204.2v204.2h204.2h204.2V-502.5z M6225-502.5v-204.2h-204.2h-204.2v204.2v204.2h204.2H6225V-502.5z M7041.7-502.5v-204.2h-204.2h-204.2v204.2v204.2h204.2h204.2V-502.5z M8062.5-706.7v-204.2h-306.3H7450v204.2v204.2h306.2h306.3V-706.7z M9287.5-706.7v-204.2h-306.3H8675v204.2v204.2h306.3h306.3V-706.7z"/><path d="M623.2-1824.5l-153.1-94.4l2266.2-7.7c1245.4-2.6,3282-2.6,4530,0l2263.7,7.7l-171,97l-168.4,94.4l-4208.4-2.5l-4205.8-2.6L623.2-1824.5z"/><path d="M100-3258.7v-1122.9h2347.9h2347.9v-204.2V-4790H5000h204.2v204.2v204.2h2347.9H9900v1122.9v1122.9H5000H100V-3258.7z M8062.5-2952.5v-204.2h-306.3H7450v204.2v204.2h306.2h306.3V-2952.5z M9287.5-2952.5v-204.2h-306.3H8675v204.2v204.2h306.3h306.3V-2952.5z M1325-3360.8V-3565h-204.2H916.7v204.2v204.2h204.2H1325V-3360.8z M2141.7-3360.8V-3565h-204.2h-204.2v204.2v204.2h204.2h204.2V-3360.8z M2958.3-3360.8V-3565h-204.2H2550v204.2v204.2h204.2h204.2V-3360.8z M3775-3360.8V-3565h-204.2h-204.2v204.2v204.2h204.2H3775V-3360.8z M4591.7-3360.8V-3565h-204.2h-204.2v204.2v204.2h204.2h204.2V-3360.8z M5408.3-3360.8V-3565h-204.2H5000v204.2v204.2h204.2h204.2V-3360.8z M6225-3360.8V-3565h-204.2h-204.2v204.2v204.2h204.2H6225V-3360.8z M7041.7-3360.8V-3565h-204.2h-204.2v204.2v204.2h204.2h204.2V-3360.8z M8062.5-3565v-204.2h-306.3H7450v204.2v204.2h306.2h306.3V-3565z M9287.5-3565v-204.2h-306.3H8675v204.2v204.2h306.3h306.3V-3565z"/></g></g>
</svg>